<?xml version="1.0" encoding="utf-8"?>
<!-- Generator: Adobe Illustrator 24.0.1, SVG Export Plug-In . SVG Version: 6.00 Build 0)  -->
<svg version="1.1" id="Layer_1" xmlns="http://www.w3.org/2000/svg" xmlns:xlink="http://www.w3.org/1999/xlink" x="0px" y="0px"
	 viewBox="0 0 23.2 23.1" style="enable-background:new 0 0 23.2 23.1;" xml:space="preserve">
<style type="text/css">
	.st0{fill:#A7196E;}
</style>
<g>
	<path class="st0" d="M11.5,3.3c2.7,0,3,0,4,0.1c1,0,1.5,0.2,1.9,0.3c0.5,0.2,0.8,0.4,1.1,0.7c0.3,0.3,0.6,0.7,0.7,1.1
		s0.3,0.9,0.3,1.9c0,1.1,0.1,1.4,0.1,4s0,3-0.1,4c0,1-0.2,1.5-0.3,1.9c-0.2,0.5-0.4,0.8-0.7,1.1c-0.3,0.3-0.7,0.6-1.1,0.7
		s-0.9,0.3-1.9,0.3c-1.1,0-1.4,0.1-4,0.1s-3,0-4-0.1c-1,0-1.5-0.2-1.9-0.3c-0.5-0.2-0.8-0.4-1.1-0.7c-0.3-0.3-0.6-0.7-0.7-1.1
		c-0.1-0.4-0.3-0.9-0.3-1.9c0-1.1-0.1-1.4-0.1-4s0-3,0.1-4c0-1,0.2-1.5,0.3-1.9C4,5,4.2,4.7,4.5,4.4s0.7-0.6,1.1-0.7
		s0.9-0.3,1.9-0.3C8.5,3.3,8.8,3.3,11.5,3.3 M11.5,1.5c-2.7,0-3.1,0-4.1,0.1C6.3,1.6,5.6,1.8,4.9,2C4.3,2.3,3.7,2.6,3.2,3.2
		C2.6,3.7,2.3,4.3,2,4.9C1.8,5.6,1.6,6.3,1.6,7.4s-0.1,1.4-0.1,4.1s0,3.1,0.1,4.1c0,1.1,0.2,1.8,0.5,2.4c0.3,0.7,0.6,1.2,1.2,1.8
		c0.6,0.6,1.1,0.9,1.8,1.2c0.6,0.2,1.4,0.4,2.4,0.5c1.1,0,1.4,0.1,4.1,0.1s3.1,0,4.1-0.1c1.1,0,1.8-0.2,2.4-0.5
		c0.7-0.3,1.2-0.6,1.8-1.2c0.6-0.6,0.9-1.1,1.2-1.8c0.2-0.6,0.4-1.4,0.5-2.4c0-1.1,0.1-1.4,0.1-4.1s0-3.1-0.1-4.1
		c0-1.1-0.2-1.8-0.5-2.4c-0.3-0.7-0.6-1.2-1.2-1.8S18.8,2.3,18.1,2c-0.6-0.2-1.4-0.4-2.4-0.5C14.6,1.5,14.2,1.5,11.5,1.5L11.5,1.5z"
		/>
	<path class="st0" d="M11.5,6.4c-2.8,0-5.1,2.3-5.1,5.1s2.3,5.1,5.1,5.1s5.1-2.3,5.1-5.1S14.3,6.4,11.5,6.4z M11.5,14.8
		c-1.8,0-3.3-1.5-3.3-3.3s1.5-3.3,3.3-3.3s3.3,1.5,3.3,3.3S13.3,14.8,11.5,14.8z"/>
	<circle class="st0" cx="16.8" cy="6.2" r="1.2"/>
</g>
</svg>
