<?xml version="1.0" encoding="utf-8"?>
<!-- Generator: Adobe Illustrator 24.0.1, SVG Export Plug-In . SVG Version: 6.00 Build 0)  -->
<svg version="1.1" id="Capa_1" xmlns="http://www.w3.org/2000/svg" xmlns:xlink="http://www.w3.org/1999/xlink" x="0px" y="0px"
	 viewBox="0 0 23.1 23.1" style="enable-background:new 0 0 23.1 23.1;" xml:space="preserve">
<style type="text/css">
	.st0{fill:#FF6A22;}
	.st1{fill:#F1F2F2;}
</style>
<g>
	<circle class="st0" cx="11.6" cy="11.6" r="10.1"/>
	<g>
		<path class="st1" d="M4.4,13.8C4.4,13.8,4.4,13.8,4.4,13.8C4.3,13.9,4.3,13.8,4.4,13.8l-0.2-0.8l0.1-0.8c0,0,0-0.1,0.1-0.1
			c0,0,0.1,0,0.1,0.1v0.8L4.4,13.8z M4.9,14.3C4.9,14.3,4.9,14.3,4.9,14.3C4.8,14.4,4.8,14.3,4.9,14.3l-0.2-1.3l0.1-1.3
			c0,0,0-0.1,0.1-0.1c0,0,0.1,0,0.1,0.1l0.1,1.3L4.9,14.3z M5.5,14.4C5.5,14.6,5.5,14.6,5.5,14.4C5.4,14.6,5.4,14.4,5.5,14.4
			l-0.3-1.5l0.1-1.6c0,0,0-0.1,0.1-0.1c0,0,0.1,0,0.1,0.1l0.2,1.6L5.5,14.4z M6.1,14.6C6.1,14.6,6.1,14.6,6.1,14.6
			c-0.1,0.1-0.2,0-0.2,0l-0.1-1.6l0.1-1.6c0,0,0-0.1,0.1-0.1c0,0,0.1,0,0.1,0.1l0.2,1.6L6.1,14.6z M6.8,14.6
			C6.8,14.6,6.8,14.6,6.8,14.6c-0.1,0.1-0.2,0.1-0.2,0l-0.1-1.6l0.1-1.5c0-0.1,0-0.1,0.1-0.1s0.1,0,0.1,0.1l0.1,1.5L6.8,14.6z
			 M7.3,14.6L7.3,14.6c0,0.1-0.1,0.1-0.1,0.1c-0.1,0-0.1,0-0.1-0.1L7,12.9l0.1-2.4c0-0.1,0.1-0.1,0.1-0.1s0.1,0,0.1,0.1l0.1,2.4
			L7.3,14.6z M7.9,14.6L7.9,14.6c0,0.1-0.1,0.1-0.1,0.1c-0.1,0-0.1-0.1-0.1-0.1l-0.2-1.6l0.1-3c0.1,0,0.1,0,0.2,0c0,0,0.1,0,0.1,0.1
			l0.1,3L7.9,14.6z M8.6,14.6L8.6,14.6c0,0.1-0.1,0.1-0.1,0.1l-0.1-0.1l-0.2-1.6l0.1-3.2c0-0.1,0.1-0.1,0.1-0.1
			c0.1,0,0.1,0.1,0.1,0.1l0.2,3.2L8.6,14.6z M9.1,14.6c0,0.1-0.1,0.1-0.1,0.1c-0.1,0-0.1-0.1-0.1-0.1l-0.2-1.6l0.1-3.3
			C8.9,9.5,9,9.5,9,9.5c0.1,0,0.1,0.1,0.1,0.1l0.2,3.3L9.1,14.6z M9.8,14.4L9.8,14.4c0,0.1-0.1,0.2-0.2,0.2c-0.1,0-0.2-0.1-0.2-0.2
			l0-1.5l0.1-3.2c0-0.1,0.1-0.2,0.2-0.2c0.1,0,0.2,0.1,0.2,0.2v3.2L9.8,14.4z M10.4,14.4L10.4,14.4c0,0.1-0.1,0.2-0.2,0.2
			c-0.1,0-0.2-0.1-0.2-0.2l-0.1-1.5l0.1-3.1c0-0.1,0.1-0.2,0.2-0.2c0.1,0,0.2,0.1,0.2,0.2l0.1,3.1L10.4,14.4z M11.1,14.3v0.1
			c0,0.1,0,0.1-0.1,0.1l-0.1,0.1c-0.1,0-0.1,0-0.1-0.1v-0.1l0,0l-0.1-1.5l0.1-3.7l0,0c0-0.1,0-0.1,0.1-0.2h0.1h0.1
			c0,0,0.1,0.1,0.1,0.2l0.1,3.7L11.1,14.3z M11.6,14.4L11.6,14.4c0,0.1-0.1,0.2-0.2,0.2c-0.1,0-0.2-0.1-0.2-0.2v-0.7v-0.7l0.1-4l0,0
			c0-0.1,0-0.1,0.1-0.2h0.1h0.1c0.1,0,0.1,0.1,0.1,0.2l0.1,4L11.6,14.4z M17,14.6h-5c-0.1,0-0.2-0.1-0.2-0.2V8.8
			c0-0.1,0-0.2,0.2-0.2c0.3-0.1,0.7-0.2,1.1-0.2c1.7,0,3,1.3,3.1,2.9c0.2-0.1,0.4-0.1,0.7-0.1c1,0,1.8,0.8,1.8,1.8
			C18.8,13.8,18,14.6,17,14.6L17,14.6z"/>
	</g>
</g>
</svg>
