<?xml version="1.0" encoding="utf-8"?>
<!-- Generator: Adobe Illustrator 24.0.1, SVG Export Plug-In . SVG Version: 6.00 Build 0)  -->
<svg version="1.1" id="Layer_1" xmlns="http://www.w3.org/2000/svg" xmlns:xlink="http://www.w3.org/1999/xlink" x="0px" y="0px"
	 viewBox="0 0 23.2 23.2" style="enable-background:new 0 0 23.2 23.2;" xml:space="preserve">
<style type="text/css">
	.st0{fill-rule:evenodd;clip-rule:evenodd;fill:#5B749F;}
	.st1{fill-rule:evenodd;clip-rule:evenodd;fill:#FFFFFF;}
</style>
<path class="st0" d="M8.5,1.5h6.2c5.7,0,7,1.3,7,7v6.2c0,5.7-1.3,7-7,7H8.5c-5.7,0-7-1.3-7-7V8.6C1.5,2.9,2.8,1.5,8.5,1.5"/>
<path class="st1" d="M18.1,8.1c0.1-0.3,0-0.6-0.5-0.6h-1.5c-0.4,0-0.6,0.2-0.7,0.4c0,0-0.8,1.9-1.8,3.1c-0.3,0.3-0.5,0.5-0.7,0.5
	c-0.1,0-0.2-0.1-0.2-0.4v-3c0-0.4-0.1-0.6-0.4-0.6H10C9.7,7.6,9.6,7.6,9.6,7.9c0,0.4,0.5,0.5,0.6,1.5v2.2c0,0.5-0.1,0.6-0.3,0.6
	c-0.5,0-1.7-1.9-2.5-4C7.3,7.6,7.1,7.6,6.8,7.6H5.2c-0.4,0-0.5,0.2-0.5,0.4c0,0.4,0.5,2.4,2.4,5c1.2,1.8,3,2.8,4.6,2.8
	c1,0,1.1-0.2,1.1-0.6v-1.4c0-0.4,0.1-0.5,0.4-0.5c0.2,0,0.6,0.1,1.5,1c1,1,1.2,1.5,1.8,1.5H18c0.4,0,0.6-0.2,0.5-0.6
	c-0.1-0.4-0.6-1-1.3-1.8c-0.3-0.4-0.9-0.9-1-1.1c-0.2-0.3-0.2-0.4,0-0.7C16.1,11.6,18,8.9,18.1,8.1"/>
</svg>
