<?xml version="1.0" encoding="utf-8"?>
<!-- Generator: Adobe Illustrator 24.0.1, SVG Export Plug-In . SVG Version: 6.00 Build 0)  -->
<svg version="1.1" id="Layer_1" xmlns="http://www.w3.org/2000/svg" xmlns:xlink="http://www.w3.org/1999/xlink" x="0px" y="0px"
	 viewBox="0 0 23 17" style="enable-background:new 0 0 23 17;" xml:space="preserve">
<style type="text/css">
	.st0{fill:#C70E06;}
	.st1{fill:#FFFFFF;}
</style>
<path class="st0" d="M21.1,3.7c-0.2-0.9-0.9-1.5-1.8-1.8c-1.6-0.4-7.8-0.4-7.8-0.4s-6.3,0-7.8,0.4C2.8,2.1,2.1,2.8,1.9,3.7
	C1.5,5.3,1.5,8.5,1.5,8.5s0,3.3,0.4,4.8c0.2,0.9,0.9,1.5,1.8,1.8c1.6,0.4,7.8,0.4,7.8,0.4s6.3,0,7.8-0.4c0.9-0.2,1.5-0.9,1.8-1.8
	c0.4-1.6,0.4-4.8,0.4-4.8S21.5,5.2,21.1,3.7z"/>
<polygon class="st1" points="9.5,11.5 9.5,5.5 14.7,8.5 "/>
</svg>
