<?xml version="1.0" encoding="utf-8"?>
<!-- Generator: Adobe Illustrator 24.0.1, SVG Export Plug-In . SVG Version: 6.00 Build 0)  -->
<svg version="1.1" id="Capa_1" xmlns="http://www.w3.org/2000/svg" xmlns:xlink="http://www.w3.org/1999/xlink" x="0px" y="0px"
	 viewBox="0 0 30.1 30.1" style="enable-background:new 0 0 30.1 30.1;" xml:space="preserve">
<style type="text/css">
	.st0{fill:#FFFFFF;}
</style>
<g>
	<path class="st0" d="M20,14.4l-6.2-4.5c-0.2-0.2-0.5-0.2-0.8-0.1c-0.3,0.1-0.4,0.4-0.4,0.7v9.1c0,0.3,0.2,0.5,0.4,0.7
		c0.1,0.1,0.2,0.1,0.3,0.1c0.2,0,0.3,0,0.4-0.1l6.2-4.5c0.2-0.1,0.3-0.4,0.3-0.6C20.3,14.8,20.2,14.6,20,14.4z"/>
	<path class="st0" d="M15,0C6.7,0,0,6.7,0,15c0,8.3,6.7,15,15,15c8.3,0,15-6.7,15-15C30.1,6.7,23.3,0,15,0z M15,27.5
		C8.1,27.5,2.5,21.9,2.5,15C2.5,8.1,8.1,2.5,15,2.5c6.9,0,12.5,5.6,12.5,12.5C27.5,21.9,21.9,27.5,15,27.5z"/>
</g>
</svg>
