<?xml version="1.0" encoding="utf-8"?>
<!-- Generator: Adobe Illustrator 24.0.1, SVG Export Plug-In . SVG Version: 6.00 Build 0)  -->
<svg version="1.1" id="Layer_1" xmlns="http://www.w3.org/2000/svg" xmlns:xlink="http://www.w3.org/1999/xlink" x="0px" y="0px"
	 viewBox="0 0 23.1 23.1" style="enable-background:new 0 0 23.1 23.1;" xml:space="preserve">
<style type="text/css">
	.st0{fill:#e8150c;}
</style>
<g>
	<path class="st0" d="M11.4,3.3c2.7,0,3,0,4,0.1c1,0,1.5,0.2,1.9,0.3c0.5,0.2,0.8,0.4,1.1,0.7c0.3,0.3,0.6,0.7,0.7,1.1
		c0.1,0.4,0.3,0.9,0.3,1.9c0,1.1,0.1,1.4,0.1,4s0,3-0.1,4c0,1-0.2,1.5-0.3,1.9c-0.2,0.5-0.4,0.8-0.7,1.1c-0.3,0.3-0.7,0.6-1.1,0.7
		c-0.4,0.1-0.9,0.3-1.9,0.3c-1.1,0-1.4,0.1-4,0.1s-3,0-4-0.1c-1,0-1.5-0.2-1.9-0.3c-0.5-0.2-0.8-0.4-1.1-0.7
		c-0.3-0.3-0.6-0.7-0.7-1.1c-0.1-0.4-0.3-0.9-0.3-1.9c0-1.1-0.1-1.4-0.1-4s0-3,0.1-4c0-1,0.2-1.5,0.3-1.9C3.9,5,4.1,4.7,4.4,4.4
		c0.3-0.3,0.7-0.6,1.1-0.7s0.9-0.3,1.9-0.3C8.4,3.3,8.8,3.3,11.4,3.3 M11.4,1.5c-2.7,0-3.1,0-4.1,0.1C6.3,1.6,5.5,1.8,4.8,2
		C4.3,2.3,3.6,2.6,3.1,3.2C2.5,3.7,2.2,4.3,1.9,4.9C1.7,5.6,1.5,6.3,1.5,7.4s-0.1,1.4-0.1,4.1s0,3.1,0.1,4.1c0,1.1,0.2,1.8,0.5,2.4
		c0.3,0.7,0.6,1.2,1.2,1.8C3.8,20.4,4.3,20.7,5,21c0.6,0.2,1.4,0.4,2.4,0.5c1.1,0,1.4,0.1,4.1,0.1s3.1,0,4.1-0.1
		c1.1,0,1.8-0.2,2.4-0.5c0.7-0.3,1.2-0.6,1.8-1.2c0.6-0.6,0.9-1.1,1.2-1.8c0.2-0.6,0.4-1.4,0.5-2.4c0-1.1,0.1-1.4,0.1-4.1
		s0-3.1-0.1-4.1c0-1.1-0.2-1.8-0.5-2.4c-0.3-0.7-0.6-1.2-1.2-1.8C19.3,2.6,18.8,2.3,18,2c-0.6-0.2-1.4-0.4-2.4-0.5
		C14.6,1.5,14.1,1.5,11.4,1.5L11.4,1.5z"/>
	<path class="st0" d="M11.4,6.4c-2.8,0-5.1,2.3-5.1,5.1s2.3,5.1,5.1,5.1s5.1-2.3,5.1-5.1S14.3,6.4,11.4,6.4z M11.4,14.8
		c-1.8,0-3.3-1.5-3.3-3.3s1.5-3.3,3.3-3.3s3.3,1.5,3.3,3.3S13.3,14.8,11.4,14.8z"/>
	<circle class="st0" cx="16.8" cy="6.2" r="1.2"/>
</g>
</svg>
