<?xml version="1.0" encoding="utf-8"?>
<!-- Generator: Adobe Illustrator 24.0.1, SVG Export Plug-In . SVG Version: 6.00 Build 0)  -->
<svg version="1.1" id="Capa_1" xmlns="http://www.w3.org/2000/svg" xmlns:xlink="http://www.w3.org/1999/xlink" x="0px" y="0px"
	 viewBox="0 0 22.9 23.1" style="enable-background:new 0 0 22.9 23.1;" xml:space="preserve">
<style type="text/css">
	.st0{fill:#e8150c;}
</style>
<path class="st0" d="M11.4,1.5C5.8,1.5,1.3,6,1.3,11.5s4.5,10.1,10.1,10.1s10.1-4.5,10.1-10.1S17,1.5,11.4,1.5z M4.3,13.8
	C4.3,13.8,4.3,13.9,4.3,13.8C4.2,13.9,4.2,13.8,4.3,13.8L4.1,13l0.1-0.8c0,0,0-0.1,0.1-0.1c0,0,0.1,0,0.1,0.1V13L4.3,13.8z
	 M4.8,14.3L4.8,14.3C4.7,14.4,4.7,14.3,4.8,14.3L4.6,13l0.1-1.3c0,0,0-0.1,0.1-0.1c0,0,0.1,0,0.1,0.1L5,13L4.8,14.3z M5.4,14.5
	C5.4,14.5,5.4,14.6,5.4,14.5C5.3,14.6,5.3,14.5,5.4,14.5L5.1,13l0.1-1.6c0,0,0-0.1,0.1-0.1c0,0,0.1,0,0.1,0.1L5.6,13L5.4,14.5z
	 M6,14.6L6,14.6c-0.1,0.1-0.2,0.1-0.2,0L5.7,13l0.1-1.6c0-0.1,0-0.1,0.1-0.1c0,0,0.1,0,0.1,0.1L6.2,13L6,14.6z M6.6,14.6
	C6.6,14.6,6.5,14.7,6.6,14.6c-0.1,0.1-0.2,0.1-0.2,0L6.3,13l0.1-1.5c0-0.1,0.1-0.1,0.1-0.1c0.1,0,0.1,0,0.1,0.1L6.7,13L6.6,14.6z
	 M7.2,14.6L7.2,14.6c0,0.1-0.1,0.1-0.1,0.1C7,14.7,7,14.6,7,14.6L6.9,13L7,10.6c0-0.1,0.1-0.1,0.1-0.1l0.1,0.1L7.3,13L7.2,14.6z
	 M7.8,14.6L7.8,14.6c0,0.1-0.1,0.1-0.1,0.1l-0.1-0.1L7.4,13l0.1-3c0,0,0.1,0,0.2,0s0.1,0,0.1,0.1l0.1,3L7.8,14.6z M8.4,14.5
	L8.4,14.5c0,0.1-0.1,0.1-0.1,0.1c-0.1,0-0.1-0.1-0.1-0.1L8,13l0.1-3.2c0-0.1,0.1-0.1,0.1-0.1c0.1,0,0.1,0.1,0.1,0.1L8.5,13L8.4,14.5
	z M9,14.5c0,0.1-0.1,0.1-0.1,0.1c-0.1,0-0.1-0.1-0.1-0.1L8.6,13l0.1-3.3c0-0.1,0.1-0.1,0.1-0.1C9,9.6,9,9.7,9,9.7L9.1,13L9,14.5z
	 M9.6,14.5L9.6,14.5c0,0.1-0.1,0.2-0.2,0.2s-0.2-0.1-0.2-0.2l0-1.5l0.1-3.2c0-0.1,0.1-0.2,0.2-0.2s0.2,0.1,0.2,0.2V13L9.6,14.5z
	 M10.3,14.5L10.3,14.5c0,0.1-0.1,0.2-0.2,0.2c-0.1,0-0.2-0.1-0.2-0.2L9.8,13l0.1-3.1c0-0.1,0.1-0.2,0.2-0.2c0.1,0,0.2,0.1,0.2,0.2
	l0.1,3.1L10.3,14.5z M10.9,14.4v0.1c0,0.1,0,0.1-0.1,0.1l-0.1,0.1c0,0-0.1,0-0.1-0.1v-0.1l0,0L10.5,13l0.1-3.7l0,0
	c0-0.1,0-0.1,0.1-0.2h0.1H11c0.1,0,0.1,0.1,0.1,0.2l0.1,3.7L10.9,14.4z M11.5,14.5L11.5,14.5c0,0.1-0.1,0.2-0.2,0.2
	s-0.2-0.1-0.2-0.2v-0.7v-0.7l0.1-4l0,0c0-0.1,0-0.1,0.1-0.1h0.1h0.1c0.1,0,0.1,0.1,0.1,0.2l0.1,4L11.5,14.5z M16.8,14.7h-5
	c-0.1,0-0.2-0.1-0.2-0.2V8.8c0-0.1,0-0.2,0.2-0.2c0.3-0.1,0.7-0.2,1.1-0.2c1.6,0,3,1.3,3.2,2.9c0.2-0.1,0.4-0.1,0.7-0.1
	c1,0,1.8,0.8,1.8,1.8C18.6,13.9,17.8,14.7,16.8,14.7z"/>
</svg>
