<?xml version="1.0" encoding="utf-8"?>
<!-- Generator: Adobe Illustrator 24.0.1, SVG Export Plug-In . SVG Version: 6.00 Build 0)  -->
<svg version="1.1" id="Layer_1" xmlns="http://www.w3.org/2000/svg" xmlns:xlink="http://www.w3.org/1999/xlink" x="0px" y="0px"
	 viewBox="0 0 23.2 23.2" style="enable-background:new 0 0 23.2 23.2;" xml:space="preserve">
<style type="text/css">
	.st0{fill-rule:evenodd;clip-rule:evenodd;fill:#e8150c;}
</style>
<path class="st0" d="M14.7,1.5H8.5c-5.7,0-7,1.4-7,7.1v6.1c0,5.7,1.3,7,7,7h6.2c5.7,0,7-1.3,7-7V8.5C21.7,2.8,20.4,1.5,14.7,1.5z
	 M18,16.1h-1.5c-0.6,0-0.8-0.5-1.8-1.5c-0.9-0.9-1.3-1-1.5-1c-0.3,0-0.4,0.1-0.4,0.5v1.4c0,0.4-0.1,0.6-1.1,0.6
	c-1.6,0-3.4-1-4.6-2.8c-1.9-2.6-2.4-4.6-2.4-5c0-0.2,0.1-0.4,0.5-0.4h1.6c0.3,0,0.5,0.1,0.6,0.6c0.8,2.1,2,4,2.5,4
	c0.2,0,0.3-0.1,0.3-0.6V9.7c-0.1-1-0.6-1.1-0.6-1.5C9.6,8,9.7,7.9,10,7.8h2.3c0.3,0,0.4,0.2,0.4,0.6v3c0,0.3,0.1,0.4,0.2,0.4
	c0.2,0,0.4-0.2,0.7-0.5c1-1.2,1.8-3.1,1.8-3.1c0.1-0.2,0.3-0.4,0.7-0.4h1.5c0.5,0,0.6,0.3,0.5,0.6c-0.1,0.9-2,3.5-1.9,3.5
	c-0.2,0.3-0.2,0.4,0,0.7c0.1,0.2,0.7,0.7,1,1.1c0.7,0.8,1.2,1.4,1.3,1.8C18.6,15.9,18.4,16.1,18,16.1z"/>
</svg>
