<?xml version="1.0" encoding="utf-8"?>
<!-- Generator: Adobe Illustrator 24.0.1, SVG Export Plug-In . SVG Version: 6.00 Build 0)  -->
<svg version="1.1" id="Layer_1" xmlns="http://www.w3.org/2000/svg" xmlns:xlink="http://www.w3.org/1999/xlink" x="0px" y="0px"
	 viewBox="0 0 390 390" style="enable-background:new 0 0 390 390;" xml:space="preserve">
<style type="text/css">
	.st0{fill:#E04F5F;}
	.st1{fill:#FFFFFF;}
</style>
<polyline class="st0" points="390,0 58.7,0 82.4,41.1 4.3,69.2 59.9,138.4 0,205.1 85,235.7 72.6,325.1 157.5,308.3 184.7,387.5
	252.6,328.8 316.1,390 345.3,315.4 390,348.7 "/>
<g>
	<path class="st1" d="M109.5,100.8l58-76l20.1,15.3L182.1,80c-1.6,11.5-4.3,24.4-7.5,35.5l0.3,0.3c6.5-10.9,14-21.4,22.7-32.8
		l17-22.2l15.8,12.1l-58,76l-18-13.8l6.1-41.7c1.7-11.6,4.2-25.2,7.3-36.9l-0.4-0.1c-7.2,10.4-15.2,21.3-24.6,33.6l-17.5,22.9
		L109.5,100.8z"/>
	<path class="st1" d="M216.5,147.5c-4.9,7.5-0.5,16.2,7.6,22.4c5.9,4.5,11.2,7.3,16.9,9.3l-6.6,13.3c-7.4-2-15.1-6.2-22.6-11.8
		c-18.7-14.3-21.2-33.3-8-50.5c10.7-14,31.1-22.8,50.3-8.2c17.8,13.6,14,32.6,3.6,46.3c-2.2,2.9-4.6,5.3-5.7,6.4L216.5,147.5z
		 M245.6,151.2c3.2-4.2,6.7-12.5-1.2-18.6c-7.2-5.5-15.1-1.2-19.1,3.1L245.6,151.2z"/>
	<path class="st1" d="M299.1,158.4l-12.8,25.9c-3.3,6.6-6.8,13.6-10.7,20.6l0.2,0.2c6-5.5,12.3-10.6,17.8-14.9l23.2-18.2l13.5,10.3
		l-11.2,26.1c-3.3,7.3-6.5,14.7-10.2,21.8l0.2,0.2c5.6-5.7,11.5-11,17.5-16.4l21.4-18.3l16.8,12.8l-59,42.2l-16.1-12.3l9.6-23.4
		c2.8-6.4,5.5-12.2,9.6-19.8l-0.2-0.2c-6.2,6.1-11.3,10.3-16.7,14.4l-20.3,15.2l-16.1-12.2l26.1-67.3L299.1,158.4z"/>
</g>
</svg>
